<?xml version="1.0" standalone="no"?>
<!DOCTYPE svg PUBLIC "-//W3C//DTD SVG 20010904//EN"
 "http://www.w3.org/TR/2001/REC-SVG-20010904/DTD/svg10.dtd">
<svg version="1.0" xmlns="http://www.w3.org/2000/svg"
 width="993.000000pt" height="993.000000pt" viewBox="0 0 993.000000 993.000000"
 preserveAspectRatio="xMidYMid meet">
<metadata>
Created by potrace 1.14, written by Peter Selinger 2001-2017
</metadata>
<g transform="translate(0.000000,993.000000) scale(0.100000,-0.100000)"
fill="#000000" stroke="none">
<path d="M1675 7520 c-115 -17 -142 -23 -231 -45 -535 -136 -958 -534 -1201
-1130 -60 -146 -132 -378 -159 -510 -23 -112 -41 -222 -49 -300 -4 -33 -9 -73
-11 -90 -25 -194 -25 -883 0 -1010 2 -12 7 -50 10 -86 4 -36 8 -76 11 -90 2
-13 6 -40 9 -59 34 -217 93 -447 161 -625 14 -38 31 -83 37 -100 20 -52 133
-267 173 -330 165 -252 415 -478 640 -579 22 -10 56 -26 75 -36 20 -9 51 -21
70 -25 19 -4 40 -11 45 -15 6 -4 33 -13 60 -19 28 -7 61 -17 75 -22 24 -8 52
-13 135 -25 22 -3 65 -9 95 -14 59 -9 391 -6 450 4 378 67 672 218 933 480
146 147 142 135 71 207 -32 32 -63 59 -69 59 -6 0 -33 -23 -60 -51 -154 -157
-343 -270 -560 -335 -120 -35 -318 -42 -440 -15 -79 18 -195 62 -225 87 -8 6
-29 19 -46 27 -82 42 -246 225 -325 362 -125 218 -224 547 -274 910 -3 22 -7
54 -10 70 -2 17 -7 60 -10 96 -4 36 -8 86 -11 110 -23 250 -22 833 1 1119 6
66 26 247 31 274 2 10 6 44 10 75 3 31 8 58 9 61 2 3 6 26 10 50 24 165 85
398 148 565 166 446 445 705 762 708 95 1 145 -14 195 -59 68 -61 103 -171
115 -359 17 -278 19 -300 34 -352 22 -81 62 -138 115 -166 53 -27 178 -30 251
-4 112 38 224 163 266 296 69 218 6 453 -164 614 -120 114 -336 212 -552 250
-49 9 -106 19 -125 22 -53 10 -418 13 -475 5z"/>
<path d="M5169 7526 c-2 -2 -51 -7 -109 -10 -58 -4 -118 -8 -135 -10 -16 -2
-57 -7 -90 -10 -105 -11 -199 -25 -282 -42 -13 -2 -51 -9 -85 -15 -219 -36
-549 -147 -738 -247 -66 -35 -222 -134 -246 -155 -7 -7 -44 -39 -82 -72 -173
-151 -305 -368 -336 -555 -3 -19 -8 -48 -11 -63 -8 -41 -9 -236 -2 -277 56
-314 298 -513 614 -504 248 6 439 143 486 350 32 139 2 270 -78 345 -74 70
-158 79 -233 24 -144 -106 -212 -130 -302 -111 -90 20 -150 113 -155 241 -6
143 34 237 152 361 91 97 252 197 467 290 84 36 325 112 411 130 179 37 345
60 346 47 0 -4 2 -870 3 -1923 2 -1053 6 -1928 10 -1945 3 -16 21 -59 38 -93
44 -88 115 -144 218 -172 76 -20 82 -21 185 -25 189 -6 346 41 420 127 32 38
65 109 81 175 4 15 8 888 10 1938 1 1051 3 1916 3 1923 1 10 21 12 89 7 496
-30 758 -97 981 -247 41 -28 84 -50 97 -50 79 0 147 141 137 284 -5 75 -20
115 -60 159 -45 50 -112 72 -250 84 -32 3 -78 7 -103 10 -25 2 -97 7 -160 11
-63 3 -144 8 -180 10 -85 6 -1106 15 -1111 10z"/>
<path d="M8519 7526 c-2 -2 -31 -7 -64 -10 -181 -20 -356 -72 -534 -160 -88
-43 -165 -88 -169 -98 -2 -4 -10 -8 -17 -8 -7 0 -15 -3 -17 -7 -1 -5 -21 -20
-43 -35 -70 -49 -206 -176 -278 -261 -44 -52 -177 -233 -177 -241 0 -2 -18
-34 -40 -70 -35 -57 -130 -249 -130 -262 0 -2 -9 -23 -20 -47 -49 -107 -138
-415 -168 -582 -26 -145 -32 -184 -48 -340 -33 -325 -19 -854 32 -1185 8 -52
17 -111 20 -130 12 -78 68 -293 110 -416 75 -224 172 -425 282 -584 25 -36 48
-67 51 -70 3 -3 18 -21 33 -41 35 -47 172 -185 222 -224 21 -16 44 -35 50 -40
24 -24 106 -75 186 -118 175 -94 388 -161 585 -184 87 -10 381 -10 455 0 287
39 557 151 783 324 71 55 222 198 272 259 l34 41 -65 66 -66 65 -80 -78 c-150
-148 -353 -266 -545 -317 -133 -35 -310 -41 -434 -13 -411 90 -699 489 -828
1145 -34 173 -45 239 -56 355 -3 30 -8 73 -10 95 -27 253 -27 1068 0 1236 2
13 6 58 10 99 5 65 14 138 30 230 2 14 7 42 10 64 35 217 109 483 182 656 144
336 353 553 593 615 152 39 268 21 345 -54 25 -24 45 -49 45 -55 0 -6 6 -23
14 -38 27 -52 40 -135 51 -343 13 -231 33 -319 87 -381 50 -56 81 -68 184 -68
82 -1 96 2 155 31 119 59 218 189 249 328 12 54 16 191 6 240 -30 154 -133
304 -276 402 -89 60 -247 129 -359 154 -25 6 -55 13 -66 15 -22 5 -99 19 -155
29 -40 7 -425 17 -431 11z"/>
</g>
</svg>
